<svg xmlns="http://www.w3.org/2000/svg" xmlns:xlink="http://www.w3.org/1999/xlink" width="500" zoomAndPan="magnify" viewBox="0 0 375 374.999991" height="500" preserveAspectRatio="xMidYMid meet" version="1.2"><defs><clipPath id="0ff97db361"><path d="M 0 186.46875 L 375 186.46875 L 375 189.46875 L 0 189.46875 Z M 0 186.46875 "/></clipPath></defs><g id="587a2d215a"><rect x="0" width="375" y="0" height="374.999991" style="fill:#ffffff;fill-opacity:1;stroke:none;"/><rect x="0" width="375" y="0" height="374.999991" style="fill:#ffffff;fill-opacity:1;stroke:none;"/><g clip-rule="nonzero" clip-path="url(#0ff97db361)"><path style=" stroke:none;fill-rule:nonzero;fill:#ff0000;fill-opacity:1;" d="M 0 189.363281 L 0 186.761719 L 374.980469 186.761719 L 374.980469 189.363281 Z M 0 189.363281 "/></g><g style="fill:#000000;fill-opacity:1;"><g transform="translate(56.81709, 173.632144)"><path style="stroke:none" d="M 18.25 -34.875 C 16.4375 -34.875 15.140625 -34.585938 14.359375 -34.015625 C 13.578125 -33.441406 13.1875 -32.285156 13.1875 -30.546875 L 13.1875 -4.375 C 13.1875 -3.644531 13.332031 -3.125 13.625 -2.8125 C 13.925781 -2.5 14.425781 -2.34375 15.125 -2.34375 L 22.890625 -2.34375 C 24.691406 -2.34375 26.179688 -2.578125 27.359375 -3.046875 C 28.546875 -3.515625 29.566406 -4.28125 30.421875 -5.34375 C 31.273438 -6.40625 32.101562 -7.910156 32.90625 -9.859375 L 33.78125 -9.546875 L 30.765625 0 L 2.1875 0 L 2.1875 -0.9375 L 2.5625 -0.9375 C 4.332031 -0.9375 5.609375 -1.25 6.390625 -1.875 C 7.171875 -2.5 7.5625 -3.628906 7.5625 -5.265625 L 7.5625 -30.609375 C 7.5625 -32.203125 7.148438 -33.3125 6.328125 -33.9375 C 5.515625 -34.5625 4.238281 -34.875 2.5 -34.875 L 2.1875 -34.875 L 2.1875 -35.828125 L 18.25 -35.828125 Z M 18.25 -34.875 "/></g></g><g style="fill:#000000;fill-opacity:1;"><g transform="translate(90.501686, 173.632144)"><path style="stroke:none" d="M 20.078125 -36.609375 C 23.378906 -36.609375 26.421875 -35.769531 29.203125 -34.09375 C 31.984375 -32.425781 34.1875 -30.160156 35.8125 -27.296875 C 37.445312 -24.429688 38.265625 -21.296875 38.265625 -17.890625 C 38.265625 -14.515625 37.445312 -11.390625 35.8125 -8.515625 C 34.1875 -5.648438 31.984375 -3.382812 29.203125 -1.71875 C 26.421875 -0.0507812 23.378906 0.78125 20.078125 0.78125 C 16.773438 0.78125 13.734375 -0.0507812 10.953125 -1.71875 C 8.171875 -3.382812 5.96875 -5.648438 4.34375 -8.515625 C 2.726562 -11.390625 1.921875 -14.515625 1.921875 -17.890625 C 1.921875 -21.296875 2.726562 -24.429688 4.34375 -27.296875 C 5.96875 -30.160156 8.171875 -32.425781 10.953125 -34.09375 C 13.734375 -35.769531 16.773438 -36.609375 20.078125 -36.609375 Z M 8.453125 -17.890625 C 8.453125 -14.546875 8.925781 -11.613281 9.875 -9.09375 C 10.832031 -6.570312 12.1875 -4.625 13.9375 -3.25 C 15.695312 -1.882812 17.742188 -1.203125 20.078125 -1.203125 C 22.398438 -1.203125 24.445312 -1.882812 26.21875 -3.25 C 28 -4.625 29.363281 -6.570312 30.3125 -9.09375 C 31.269531 -11.613281 31.75 -14.546875 31.75 -17.890625 C 31.75 -21.148438 31.28125 -24.046875 30.34375 -26.578125 C 29.40625 -29.117188 28.054688 -31.09375 26.296875 -32.5 C 24.546875 -33.914062 22.453125 -34.625 20.015625 -34.625 C 17.617188 -34.625 15.550781 -33.910156 13.8125 -32.484375 C 12.070312 -31.054688 10.742188 -29.070312 9.828125 -26.53125 C 8.910156 -24 8.453125 -21.117188 8.453125 -17.890625 Z M 8.453125 -17.890625 "/></g></g><g style="fill:#000000;fill-opacity:1;"><g transform="translate(130.704305, 173.632144)"><path style="stroke:none" d="M 30.875 -26.484375 C 30.875 -24.296875 30.125 -22.410156 28.625 -20.828125 C 27.132812 -19.242188 24.859375 -18.070312 21.796875 -17.3125 L 30.078125 -7.03125 C 31.085938 -5.78125 31.941406 -4.78125 32.640625 -4.03125 C 33.335938 -3.289062 34.195312 -2.613281 35.21875 -2 C 36.25 -1.394531 37.390625 -1.039062 38.640625 -0.9375 L 38.640625 0 L 29.296875 0 L 15.796875 -16.796875 L 12.359375 -16.796875 L 12.359375 -5.15625 C 12.359375 -3.632812 12.75 -2.550781 13.53125 -1.90625 C 14.3125 -1.257812 15.535156 -0.9375 17.203125 -0.9375 L 17.421875 -0.9375 L 17.421875 0 L 1.765625 0 L 1.765625 -0.9375 C 3.441406 -0.9375 4.6875 -1.234375 5.5 -1.828125 C 6.3125 -2.421875 6.71875 -3.476562 6.71875 -5 L 6.71875 -30.921875 C 6.71875 -32.304688 6.3125 -33.3125 5.5 -33.9375 C 4.6875 -34.5625 3.441406 -34.875 1.765625 -34.875 L 1.765625 -35.828125 L 18.515625 -35.828125 C 21.921875 -35.828125 24.832031 -35.0625 27.25 -33.53125 C 29.664062 -32 30.875 -29.648438 30.875 -26.484375 Z M 12.359375 -33.0625 L 12.359375 -18.5625 L 13.65625 -18.5625 C 17.164062 -18.5625 19.820312 -19.25 21.625 -20.625 C 23.4375 -22 24.34375 -23.898438 24.34375 -26.328125 C 24.34375 -28.453125 23.65625 -30.257812 22.28125 -31.75 C 20.914062 -33.25 18.976562 -34 16.46875 -34 C 15.113281 -34 13.742188 -33.6875 12.359375 -33.0625 Z M 12.359375 -33.0625 "/></g></g><g style="fill:#000000;fill-opacity:1;"><g transform="translate(170.906924, 173.632144)"><path style="stroke:none" d="M 34.25 -9.390625 L 34.25 -30.875 C 34.25 -32.4375 33.972656 -33.484375 33.421875 -34.015625 C 32.867188 -34.554688 31.84375 -34.84375 30.34375 -34.875 L 29.046875 -34.875 L 29.046875 -35.828125 L 42.234375 -35.828125 L 42.234375 -34.875 L 41.140625 -34.875 C 39.742188 -34.875 38.75 -34.785156 38.15625 -34.609375 C 37.570312 -34.441406 37.164062 -34.035156 36.9375 -33.390625 C 36.71875 -32.753906 36.609375 -31.703125 36.609375 -30.234375 L 36.609375 0.421875 L 35.875 0.421875 L 10.265625 -28.421875 L 10.265625 -6.046875 C 10.265625 -4.097656 10.65625 -2.757812 11.4375 -2.03125 C 12.226562 -1.300781 13.578125 -0.9375 15.484375 -0.9375 L 15.484375 0 L 2.5625 0 L 2.5625 -0.9375 L 2.875 -0.9375 C 4.539062 -0.9375 5.804688 -1.238281 6.671875 -1.84375 C 7.546875 -2.457031 7.984375 -3.582031 7.984375 -5.21875 L 7.984375 -30.703125 C 7.078125 -32.234375 6.050781 -33.3125 4.90625 -33.9375 C 3.757812 -34.5625 2.347656 -34.875 0.671875 -34.875 L 0.671875 -35.828125 L 11.109375 -35.828125 Z M 34.25 -9.390625 "/></g></g><g style="fill:#000000;fill-opacity:1;"><g transform="translate(213.821011, 173.632144)"><path style="stroke:none" d="M 30.703125 -27.890625 L 29.828125 -27.890625 C 29.472656 -29.878906 28.828125 -31.347656 27.890625 -32.296875 C 26.953125 -33.253906 25.648438 -33.734375 23.984375 -33.734375 L 12.671875 -33.734375 L 12.671875 -19.921875 L 21.953125 -19.921875 C 23.617188 -19.921875 24.800781 -20.335938 25.5 -21.171875 C 26.195312 -22.003906 26.5625 -23.320312 26.59375 -25.125 L 27.53125 -25.125 L 27.53125 -12.515625 L 26.59375 -12.515625 C 26.59375 -14.316406 26.242188 -15.648438 25.546875 -16.515625 C 24.847656 -17.390625 23.613281 -17.828125 21.84375 -17.828125 L 12.671875 -17.828125 L 12.671875 -4.75 C 12.671875 -2.96875 13.363281 -2.078125 14.75 -2.078125 L 23.9375 -2.078125 C 25.84375 -2.078125 27.523438 -2.660156 28.984375 -3.828125 C 30.453125 -4.992188 31.632812 -6.691406 32.53125 -8.921875 L 33.625 -8.921875 L 30.703125 0 L 1.875 0 L 1.875 -0.9375 C 3.6875 -0.9375 5 -1.238281 5.8125 -1.84375 C 6.625 -2.457031 7.03125 -3.597656 7.03125 -5.265625 L 7.03125 -30.921875 C 7.03125 -32.304688 6.625 -33.3125 5.8125 -33.9375 C 5 -34.5625 3.6875 -34.875 1.875 -34.875 L 1.875 -35.828125 L 30.296875 -35.828125 Z M 30.703125 -27.890625 "/></g></g><g style="fill:#000000;fill-opacity:1;"><g transform="translate(248.60073, 173.632144)"><path style="stroke:none" d="M 18.25 -34.875 C 16.4375 -34.875 15.140625 -34.585938 14.359375 -34.015625 C 13.578125 -33.441406 13.1875 -32.285156 13.1875 -30.546875 L 13.1875 -4.375 C 13.1875 -3.644531 13.332031 -3.125 13.625 -2.8125 C 13.925781 -2.5 14.425781 -2.34375 15.125 -2.34375 L 22.890625 -2.34375 C 24.691406 -2.34375 26.179688 -2.578125 27.359375 -3.046875 C 28.546875 -3.515625 29.566406 -4.28125 30.421875 -5.34375 C 31.273438 -6.40625 32.101562 -7.910156 32.90625 -9.859375 L 33.78125 -9.546875 L 30.765625 0 L 2.1875 0 L 2.1875 -0.9375 L 2.5625 -0.9375 C 4.332031 -0.9375 5.609375 -1.25 6.390625 -1.875 C 7.171875 -2.5 7.5625 -3.628906 7.5625 -5.265625 L 7.5625 -30.609375 C 7.5625 -32.203125 7.148438 -33.3125 6.328125 -33.9375 C 5.515625 -34.5625 4.238281 -34.875 2.5 -34.875 L 2.1875 -34.875 L 2.1875 -35.828125 L 18.25 -35.828125 Z M 18.25 -34.875 "/></g></g><g style="fill:#000000;fill-opacity:1;"><g transform="translate(283.380449, 173.632144)"><path style="stroke:none" d="M 18.25 -34.875 C 16.4375 -34.875 15.140625 -34.585938 14.359375 -34.015625 C 13.578125 -33.441406 13.1875 -32.285156 13.1875 -30.546875 L 13.1875 -4.375 C 13.1875 -3.644531 13.332031 -3.125 13.625 -2.8125 C 13.925781 -2.5 14.425781 -2.34375 15.125 -2.34375 L 22.890625 -2.34375 C 24.691406 -2.34375 26.179688 -2.578125 27.359375 -3.046875 C 28.546875 -3.515625 29.566406 -4.28125 30.421875 -5.34375 C 31.273438 -6.40625 32.101562 -7.910156 32.90625 -9.859375 L 33.78125 -9.546875 L 30.765625 0 L 2.1875 0 L 2.1875 -0.9375 L 2.5625 -0.9375 C 4.332031 -0.9375 5.609375 -1.25 6.390625 -1.875 C 7.171875 -2.5 7.5625 -3.628906 7.5625 -5.265625 L 7.5625 -30.609375 C 7.5625 -32.203125 7.148438 -33.3125 6.328125 -33.9375 C 5.515625 -34.5625 4.238281 -34.875 2.5 -34.875 L 2.1875 -34.875 L 2.1875 -35.828125 L 18.25 -35.828125 Z M 18.25 -34.875 "/></g></g><g style="fill:#000000;fill-opacity:1;"><g transform="translate(82.543945, 219.309506)"><path style="stroke:none" d="M 17.765625 -15.234375 C 17.765625 -13.972656 17.332031 -12.890625 16.46875 -11.984375 C 15.613281 -11.078125 14.304688 -10.398438 12.546875 -9.953125 L 17.3125 -4.046875 C 17.894531 -3.328125 18.382812 -2.753906 18.78125 -2.328125 C 19.175781 -1.898438 19.671875 -1.507812 20.265625 -1.15625 C 20.859375 -0.800781 21.515625 -0.597656 22.234375 -0.546875 L 22.234375 0 L 16.859375 0 L 9.09375 -9.65625 L 7.109375 -9.65625 L 7.109375 -2.96875 C 7.109375 -2.09375 7.332031 -1.46875 7.78125 -1.09375 C 8.226562 -0.726562 8.9375 -0.546875 9.90625 -0.546875 L 10.015625 -0.546875 L 10.015625 0 L 1.015625 0 L 1.015625 -0.546875 C 1.972656 -0.546875 2.6875 -0.710938 3.15625 -1.046875 C 3.632812 -1.390625 3.875 -2 3.875 -2.875 L 3.875 -17.796875 C 3.875 -18.585938 3.632812 -19.160156 3.15625 -19.515625 C 2.6875 -19.878906 1.972656 -20.0625 1.015625 -20.0625 L 1.015625 -20.609375 L 10.65625 -20.609375 C 12.613281 -20.609375 14.285156 -20.164062 15.671875 -19.28125 C 17.066406 -18.40625 17.765625 -17.054688 17.765625 -15.234375 Z M 7.109375 -19.015625 L 7.109375 -10.6875 L 7.859375 -10.6875 C 9.878906 -10.6875 11.410156 -11.078125 12.453125 -11.859375 C 13.492188 -12.648438 14.015625 -13.75 14.015625 -15.15625 C 14.015625 -16.375 13.617188 -17.410156 12.828125 -18.265625 C 12.035156 -19.128906 10.921875 -19.5625 9.484375 -19.5625 C 8.703125 -19.5625 7.910156 -19.378906 7.109375 -19.015625 Z M 7.109375 -19.015625 "/></g></g><g style="fill:#000000;fill-opacity:1;"><g transform="translate(105.673918, 219.309506)"><path style="stroke:none" d="M 17.671875 -16.046875 L 17.15625 -16.046875 C 16.957031 -17.191406 16.585938 -18.035156 16.046875 -18.578125 C 15.503906 -19.128906 14.753906 -19.40625 13.796875 -19.40625 L 7.296875 -19.40625 L 7.296875 -11.453125 L 12.625 -11.453125 C 13.582031 -11.453125 14.257812 -11.691406 14.65625 -12.171875 C 15.0625 -12.660156 15.273438 -13.421875 15.296875 -14.453125 L 15.84375 -14.453125 L 15.84375 -7.203125 L 15.296875 -7.203125 C 15.296875 -8.242188 15.09375 -9.015625 14.6875 -9.515625 C 14.289062 -10.015625 13.582031 -10.265625 12.5625 -10.265625 L 7.296875 -10.265625 L 7.296875 -2.734375 C 7.296875 -1.710938 7.691406 -1.203125 8.484375 -1.203125 L 13.765625 -1.203125 C 14.867188 -1.203125 15.835938 -1.535156 16.671875 -2.203125 C 17.515625 -2.867188 18.195312 -3.84375 18.71875 -5.125 L 19.34375 -5.125 L 17.671875 0 L 1.078125 0 L 1.078125 -0.546875 C 2.117188 -0.546875 2.875 -0.71875 3.34375 -1.0625 C 3.8125 -1.414062 4.046875 -2.070312 4.046875 -3.03125 L 4.046875 -17.796875 C 4.046875 -18.585938 3.8125 -19.160156 3.34375 -19.515625 C 2.875 -19.878906 2.117188 -20.0625 1.078125 -20.0625 L 1.078125 -20.609375 L 17.4375 -20.609375 Z M 17.671875 -16.046875 "/></g></g><g style="fill:#000000;fill-opacity:1;"><g transform="translate(125.6839, 219.309506)"><path style="stroke:none" d="M 3.453125 -3.984375 L 11.125 -21.515625 L 11.671875 -21.515625 L 19.765625 -2.84375 C 20.066406 -2.164062 20.351562 -1.660156 20.625 -1.328125 C 20.894531 -1.003906 21.179688 -0.789062 21.484375 -0.6875 C 21.785156 -0.59375 22.191406 -0.546875 22.703125 -0.546875 L 22.703125 0 L 14.25 0 L 14.25 -0.546875 C 14.96875 -0.546875 15.503906 -0.671875 15.859375 -0.921875 C 16.222656 -1.179688 16.40625 -1.535156 16.40625 -1.984375 C 16.40625 -2.359375 16.273438 -2.828125 16.015625 -3.390625 L 14.453125 -6.9375 L 6.15625 -6.9375 L 4.4375 -3 C 4.238281 -2.601562 4.140625 -2.242188 4.140625 -1.921875 C 4.140625 -1.003906 4.878906 -0.546875 6.359375 -0.546875 L 6.359375 0 L 0.421875 0 L 0.421875 -0.546875 C 0.921875 -0.597656 1.320312 -0.738281 1.625 -0.96875 C 1.9375 -1.195312 2.21875 -1.53125 2.46875 -1.96875 C 2.71875 -2.414062 3.046875 -3.085938 3.453125 -3.984375 Z M 13.984375 -8.0625 L 10.3125 -16.4375 L 6.65625 -8.0625 Z M 13.984375 -8.0625 "/></g></g><g style="fill:#000000;fill-opacity:1;"><g transform="translate(148.813873, 219.309506)"><path style="stroke:none" d="M 10.5 -20.0625 C 9.457031 -20.0625 8.710938 -19.894531 8.265625 -19.5625 C 7.816406 -19.238281 7.59375 -18.578125 7.59375 -17.578125 L 7.59375 -2.515625 C 7.59375 -2.097656 7.675781 -1.796875 7.84375 -1.609375 C 8.007812 -1.429688 8.296875 -1.34375 8.703125 -1.34375 L 13.171875 -1.34375 C 14.210938 -1.34375 15.070312 -1.476562 15.75 -1.75 C 16.425781 -2.019531 17.007812 -2.457031 17.5 -3.0625 C 17.988281 -3.675781 18.46875 -4.546875 18.9375 -5.671875 L 19.4375 -5.484375 L 17.703125 0 L 1.265625 0 L 1.265625 -0.546875 L 1.46875 -0.546875 C 2.488281 -0.546875 3.222656 -0.722656 3.671875 -1.078125 C 4.117188 -1.441406 4.34375 -2.09375 4.34375 -3.03125 L 4.34375 -17.609375 C 4.34375 -18.523438 4.109375 -19.160156 3.640625 -19.515625 C 3.171875 -19.878906 2.4375 -20.0625 1.4375 -20.0625 L 1.265625 -20.0625 L 1.265625 -20.609375 L 10.5 -20.609375 Z M 10.5 -20.0625 "/></g></g><g style="fill:#000000;fill-opacity:1;"><g transform="translate(168.823854, 219.309506)"><path style="stroke:none" d=""/></g></g><g style="fill:#000000;fill-opacity:1;"><g transform="translate(176.323842, 219.309506)"><path style="stroke:none" d="M 17.671875 -16.046875 L 17.15625 -16.046875 C 16.957031 -17.191406 16.585938 -18.035156 16.046875 -18.578125 C 15.503906 -19.128906 14.753906 -19.40625 13.796875 -19.40625 L 7.296875 -19.40625 L 7.296875 -11.453125 L 12.625 -11.453125 C 13.582031 -11.453125 14.257812 -11.691406 14.65625 -12.171875 C 15.0625 -12.660156 15.273438 -13.421875 15.296875 -14.453125 L 15.84375 -14.453125 L 15.84375 -7.203125 L 15.296875 -7.203125 C 15.296875 -8.242188 15.09375 -9.015625 14.6875 -9.515625 C 14.289062 -10.015625 13.582031 -10.265625 12.5625 -10.265625 L 7.296875 -10.265625 L 7.296875 -2.734375 C 7.296875 -1.710938 7.691406 -1.203125 8.484375 -1.203125 L 13.765625 -1.203125 C 14.867188 -1.203125 15.835938 -1.535156 16.671875 -2.203125 C 17.515625 -2.867188 18.195312 -3.84375 18.71875 -5.125 L 19.34375 -5.125 L 17.671875 0 L 1.078125 0 L 1.078125 -0.546875 C 2.117188 -0.546875 2.875 -0.71875 3.34375 -1.0625 C 3.8125 -1.414062 4.046875 -2.070312 4.046875 -3.03125 L 4.046875 -17.796875 C 4.046875 -18.585938 3.8125 -19.160156 3.34375 -19.515625 C 2.875 -19.878906 2.117188 -20.0625 1.078125 -20.0625 L 1.078125 -20.609375 L 17.4375 -20.609375 Z M 17.671875 -16.046875 "/></g></g><g style="fill:#000000;fill-opacity:1;"><g transform="translate(196.333824, 219.309506)"><path style="stroke:none" d="M 7.5625 -21.0625 C 8.238281 -21.0625 8.828125 -20.992188 9.328125 -20.859375 C 9.828125 -20.734375 10.335938 -20.5625 10.859375 -20.34375 C 11.117188 -20.238281 11.375 -20.144531 11.625 -20.0625 C 11.875 -19.988281 12.097656 -19.953125 12.296875 -19.953125 C 12.773438 -19.953125 13.15625 -20.320312 13.4375 -21.0625 L 14.015625 -21.0625 L 14.015625 -14.21875 L 13.4375 -14.21875 C 13.34375 -15.28125 13.03125 -16.242188 12.5 -17.109375 C 11.96875 -17.984375 11.304688 -18.671875 10.515625 -19.171875 C 9.722656 -19.671875 8.878906 -19.921875 7.984375 -19.921875 C 7.003906 -19.921875 6.160156 -19.625 5.453125 -19.03125 C 4.753906 -18.445312 4.40625 -17.734375 4.40625 -16.890625 C 4.40625 -15.910156 4.882812 -15.0625 5.84375 -14.34375 C 6.53125 -13.84375 7.484375 -13.242188 8.703125 -12.546875 C 9.773438 -11.878906 10.671875 -11.304688 11.390625 -10.828125 C 12.117188 -10.347656 12.789062 -9.828125 13.40625 -9.265625 C 13.96875 -8.722656 14.410156 -8.101562 14.734375 -7.40625 C 15.066406 -6.707031 15.234375 -5.988281 15.234375 -5.25 C 15.234375 -4.226562 14.953125 -3.273438 14.390625 -2.390625 C 13.835938 -1.515625 13.078125 -0.820312 12.109375 -0.3125 C 11.140625 0.195312 10.070312 0.453125 8.90625 0.453125 C 8.164062 0.453125 7.507812 0.382812 6.9375 0.25 C 6.375 0.125 5.78125 -0.046875 5.15625 -0.265625 C 4.476562 -0.503906 3.96875 -0.625 3.625 -0.625 C 3.082031 -0.625 2.675781 -0.265625 2.40625 0.453125 L 1.859375 0.453125 L 1.859375 -6.484375 L 2.40625 -6.484375 C 2.738281 -4.703125 3.410156 -3.289062 4.421875 -2.25 C 5.429688 -1.207031 6.738281 -0.6875 8.34375 -0.6875 C 9.476562 -0.6875 10.414062 -0.992188 11.15625 -1.609375 C 11.894531 -2.234375 12.265625 -3.015625 12.265625 -3.953125 C 12.265625 -4.441406 12.175781 -4.882812 12 -5.28125 C 11.820312 -5.675781 11.519531 -6.101562 11.09375 -6.5625 C 10.71875 -6.96875 10.179688 -7.40625 9.484375 -7.875 C 8.785156 -8.34375 7.851562 -8.925781 6.6875 -9.625 C 5.707031 -10.226562 4.957031 -10.703125 4.4375 -11.046875 C 3.914062 -11.398438 3.523438 -11.707031 3.265625 -11.96875 C 2.242188 -13.007812 1.734375 -14.257812 1.734375 -15.71875 C 1.734375 -16.71875 1.988281 -17.625 2.5 -18.4375 C 3.007812 -19.25 3.703125 -19.890625 4.578125 -20.359375 C 5.460938 -20.828125 6.457031 -21.0625 7.5625 -21.0625 Z M 7.5625 -21.0625 "/></g></g><g style="fill:#000000;fill-opacity:1;"><g transform="translate(212.893813, 219.309506)"><path style="stroke:none" d="M 19.265625 -15.9375 L 18.6875 -15.9375 C 18.40625 -18.175781 17.195312 -19.296875 15.0625 -19.296875 L 11.609375 -19.296875 L 11.609375 -2.8125 C 11.609375 -1.914062 11.867188 -1.3125 12.390625 -1 C 12.910156 -0.695312 13.648438 -0.546875 14.609375 -0.546875 L 14.609375 0 L 5.375 0 L 5.375 -0.546875 C 6.425781 -0.546875 7.1875 -0.722656 7.65625 -1.078125 C 8.132812 -1.441406 8.375 -2.09375 8.375 -3.03125 L 8.375 -19.296875 L 4.703125 -19.296875 C 3.765625 -19.296875 2.976562 -19.019531 2.34375 -18.46875 C 1.71875 -17.914062 1.367188 -17.070312 1.296875 -15.9375 L 0.75 -15.9375 L 0.90625 -20.609375 L 19.109375 -20.609375 Z M 19.265625 -15.9375 "/></g></g><g style="fill:#000000;fill-opacity:1;"><g transform="translate(231.133794, 219.309506)"><path style="stroke:none" d="M 3.453125 -3.984375 L 11.125 -21.515625 L 11.671875 -21.515625 L 19.765625 -2.84375 C 20.066406 -2.164062 20.351562 -1.660156 20.625 -1.328125 C 20.894531 -1.003906 21.179688 -0.789062 21.484375 -0.6875 C 21.785156 -0.59375 22.191406 -0.546875 22.703125 -0.546875 L 22.703125 0 L 14.25 0 L 14.25 -0.546875 C 14.96875 -0.546875 15.503906 -0.671875 15.859375 -0.921875 C 16.222656 -1.179688 16.40625 -1.535156 16.40625 -1.984375 C 16.40625 -2.359375 16.273438 -2.828125 16.015625 -3.390625 L 14.453125 -6.9375 L 6.15625 -6.9375 L 4.4375 -3 C 4.238281 -2.601562 4.140625 -2.242188 4.140625 -1.921875 C 4.140625 -1.003906 4.878906 -0.546875 6.359375 -0.546875 L 6.359375 0 L 0.421875 0 L 0.421875 -0.546875 C 0.921875 -0.597656 1.320312 -0.738281 1.625 -0.96875 C 1.9375 -1.195312 2.21875 -1.53125 2.46875 -1.96875 C 2.71875 -2.414062 3.046875 -3.085938 3.453125 -3.984375 Z M 13.984375 -8.0625 L 10.3125 -16.4375 L 6.65625 -8.0625 Z M 13.984375 -8.0625 "/></g></g><g style="fill:#000000;fill-opacity:1;"><g transform="translate(252.433765, 219.309506)"><path style="stroke:none" d="M 19.265625 -15.9375 L 18.6875 -15.9375 C 18.40625 -18.175781 17.195312 -19.296875 15.0625 -19.296875 L 11.609375 -19.296875 L 11.609375 -2.8125 C 11.609375 -1.914062 11.867188 -1.3125 12.390625 -1 C 12.910156 -0.695312 13.648438 -0.546875 14.609375 -0.546875 L 14.609375 0 L 5.375 0 L 5.375 -0.546875 C 6.425781 -0.546875 7.1875 -0.722656 7.65625 -1.078125 C 8.132812 -1.441406 8.375 -2.09375 8.375 -3.03125 L 8.375 -19.296875 L 4.703125 -19.296875 C 3.765625 -19.296875 2.976562 -19.019531 2.34375 -18.46875 C 1.71875 -17.914062 1.367188 -17.070312 1.296875 -15.9375 L 0.75 -15.9375 L 0.90625 -20.609375 L 19.109375 -20.609375 Z M 19.265625 -15.9375 "/></g></g><g style="fill:#000000;fill-opacity:1;"><g transform="translate(272.443747, 219.309506)"><path style="stroke:none" d="M 17.671875 -16.046875 L 17.15625 -16.046875 C 16.957031 -17.191406 16.585938 -18.035156 16.046875 -18.578125 C 15.503906 -19.128906 14.753906 -19.40625 13.796875 -19.40625 L 7.296875 -19.40625 L 7.296875 -11.453125 L 12.625 -11.453125 C 13.582031 -11.453125 14.257812 -11.691406 14.65625 -12.171875 C 15.0625 -12.660156 15.273438 -13.421875 15.296875 -14.453125 L 15.84375 -14.453125 L 15.84375 -7.203125 L 15.296875 -7.203125 C 15.296875 -8.242188 15.09375 -9.015625 14.6875 -9.515625 C 14.289062 -10.015625 13.582031 -10.265625 12.5625 -10.265625 L 7.296875 -10.265625 L 7.296875 -2.734375 C 7.296875 -1.710938 7.691406 -1.203125 8.484375 -1.203125 L 13.765625 -1.203125 C 14.867188 -1.203125 15.835938 -1.535156 16.671875 -2.203125 C 17.515625 -2.867188 18.195312 -3.84375 18.71875 -5.125 L 19.34375 -5.125 L 17.671875 0 L 1.078125 0 L 1.078125 -0.546875 C 2.117188 -0.546875 2.875 -0.71875 3.34375 -1.0625 C 3.8125 -1.414062 4.046875 -2.070312 4.046875 -3.03125 L 4.046875 -17.796875 C 4.046875 -18.585938 3.8125 -19.160156 3.34375 -19.515625 C 2.875 -19.878906 2.117188 -20.0625 1.078125 -20.0625 L 1.078125 -20.609375 L 17.4375 -20.609375 Z M 17.671875 -16.046875 "/></g></g></g></svg>